<svg id="sample-icon" xmlns="http://www.w3.org/2000/svg" width="24" height="24" viewBox="0 0 24 24">
  <g id="Boundary" stroke="rgba(0,0,0,0)" stroke-width="1" opacity="0">
    <rect width="24" height="24" stroke="none"/>
    <rect x="0.5" y="0.5" width="23" height="23" fill="none"/>
  </g>
  <path id="Union_52" data-name="Union 52" d="M-14049.073-874a8.726,8.726,0,0,1-4-1,8.7,8.7,0,0,1-8,0,8.75,8.75,0,0,1-4,1h-2v-2h2a6.955,6.955,0,0,0,4-1.331,6.883,6.883,0,0,0,8,0,6.969,6.969,0,0,0,4,1.331h2v2Zm0-4a5.492,5.492,0,0,1-4-2,5.489,5.489,0,0,1-4,2,5.494,5.494,0,0,1-4-2,5.487,5.487,0,0,1-4,2h-.061l-1.889-6.69a1.079,1.079,0,0,1,.061-.77,1.013,1.013,0,0,1,.6-.5l1.289-.42V-891a2,2,0,0,1,2-2h3v-3h6v3h3a2,2,0,0,1,2,2v4.621l1.292.42a1.018,1.018,0,0,1,.6.5,1.1,1.1,0,0,1,.061.77l-1.9,6.69Zm-2-9.038V-891h-11.721v3.87l5.72-1.868Zm-12,0,.278-.091V-891h-.278Z" transform="translate(14069.072 897)" fill="none" stroke="#989898" stroke-width="1"/>
  <path id="Path_196" data-name="Path 196" d="M2,12l2.407,7.291" fill="none" stroke="#989898" stroke-width="1"/>
</svg>
